<?xml version="1.0" standalone="no"?>
<!DOCTYPE svg PUBLIC "-//W3C//DTD SVG 20010904//EN"
 "http://www.w3.org/TR/2001/REC-SVG-20010904/DTD/svg10.dtd">
<svg version="1.0" xmlns="http://www.w3.org/2000/svg"
 width="1024.000000pt" height="1024.000000pt" viewBox="0 0 1024.000000 1024.000000"
 preserveAspectRatio="xMidYMid meet">
<metadata>
Created by potrace 1.14, written by Peter Selinger 2001-2017
</metadata>
<g transform="translate(0.000000,1024.000000) scale(0.100000,-0.100000)"
fill="#000000" stroke="none">
<path d="M7302 7852 c-12 -12 -26 -39 -33 -61 -14 -47 -32 -54 -94 -35 -58 17
-88 6 -116 -41 -11 -19 -35 -43 -52 -54 -18 -11 -42 -33 -55 -50 -12 -17 -40
-40 -62 -51 -43 -22 -43 -22 -44 -120 l-1 -65 -50 -25 -50 -25 -3 -75 c-2 -41
-7 -79 -12 -85 -5 -7 -28 -18 -49 -25 -22 -7 -43 -20 -46 -28 -3 -9 -8 -275
-11 -591 -2 -317 -6 -601 -8 -631 -4 -58 6 -90 28 -90 8 0 33 -16 57 -36 55
-45 87 -42 161 16 47 38 57 42 95 37 23 -2 49 -12 58 -21 10 -9 33 -25 54 -35
20 -10 43 -27 53 -37 14 -16 55 -99 84 -169 4 -11 8 -344 9 -740 1 -396 5
-732 9 -748 8 -25 5 -28 -35 -47 -51 -23 -78 -25 -114 -8 -31 14 -31 18 0 52
29 31 30 51 10 138 -10 45 -12 80 -6 122 4 33 5 75 0 95 -4 19 -5 81 -2 136 4
55 6 120 6 145 -1 25 -3 146 -5 270 -3 205 -5 231 -27 293 -12 37 -38 89 -57
115 -18 26 -46 72 -61 102 -34 66 -148 184 -183 189 -73 10 -133 2 -198 -24
-19 -8 -47 -15 -63 -15 -33 0 -69 34 -69 66 0 20 7 22 76 29 66 6 77 10 86 31
13 28 -5 55 -52 74 -63 26 -93 6 -117 -75 l-9 -30 -88 2 c-104 2 -126 -6 -126
-48 0 -22 11 -40 40 -69 l40 -39 -16 -38 c-18 -43 -34 -316 -26 -438 1 -16 -2
-178 -6 -360 -6 -208 -5 -335 1 -342 15 -20 -1 -63 -23 -63 -27 0 -52 27 -80
85 -23 48 -24 55 -26 375 -2 379 -13 550 -38 600 -16 34 -75 145 -165 310 -32
60 -55 89 -88 111 -60 42 -89 37 -123 -21 -21 -35 -34 -47 -63 -54 -51 -13
-89 1 -98 38 -11 39 -37 66 -66 66 -20 0 -23 -5 -23 -34 0 -48 8 -65 41 -82
36 -18 36 -30 0 -80 -40 -54 -51 -102 -51 -225 0 -62 -6 -123 -13 -145 -8 -22
-15 -63 -16 -92 -1 -29 -7 -66 -11 -84 -5 -17 -7 -35 -3 -41 3 -6 2 -7 -4 -4
-22 14 -36 97 -29 173 3 42 2 83 -3 92 -5 9 -11 33 -14 52 -19 141 -103 340
-162 385 -42 31 -43 46 -9 90 20 27 23 38 15 54 -23 42 -123 51 -204 17 -24
-10 -40 -27 -55 -59 -23 -48 -93 -123 -125 -133 -38 -12 -64 4 -86 56 -12 27
-37 65 -57 84 -24 23 -34 41 -30 51 10 27 76 48 148 47 48 -1 72 3 83 14 17
18 18 24 5 44 -13 22 -211 23 -325 2 -124 -23 -333 -18 -424 10 -97 30 -173
24 -214 -17 -23 -23 -21 -38 8 -73 28 -34 31 -54 11 -75 -24 -24 -57 -165 -93
-399 -3 -20 -16 -47 -29 -59 l-23 -21 -26 28 c-31 33 -51 99 -65 213 -13 109
-56 283 -82 335 -25 51 -70 94 -106 102 -51 11 -60 15 -80 32 -18 16 -21 30
-21 105 1 47 -2 90 -5 95 -3 5 -6 97 -7 205 -2 194 -3 196 -31 256 -38 77 -69
111 -105 111 -15 0 -46 9 -68 19 -88 40 -132 35 -160 -18 -8 -17 -33 -40 -56
-51 -53 -28 -66 -58 -51 -116 15 -54 15 -124 2 -159 -6 -16 -25 -32 -54 -45
-59 -25 -69 -45 -60 -130 5 -56 3 -75 -10 -94 -17 -27 -85 -51 -120 -42 -37 9
-264 19 -290 12 -13 -3 -28 -15 -31 -26 -4 -12 -17 -31 -29 -44 -43 -42 -48
-62 -46 -179 4 -174 -30 -357 -65 -357 -6 0 -17 19 -23 43 -6 23 -20 77 -31
120 -32 128 -68 228 -105 297 -8 14 -17 44 -21 68 -8 52 -33 77 -90 91 -54 14
-89 14 -135 1 -57 -16 -70 -30 -79 -91 -5 -32 -21 -79 -34 -105 -13 -27 -39
-96 -57 -154 -32 -102 -58 -149 -78 -137 -10 7 -31 62 -57 152 -16 56 -26 83
-61 163 -8 18 -14 39 -14 47 0 7 -9 34 -19 59 -15 35 -30 50 -63 67 -53 26
-108 67 -108 79 0 32 150 61 205 40 12 -5 56 -10 97 -11 65 -3 74 -5 76 -23 2
-27 27 -50 46 -43 24 9 19 22 -18 50 -23 18 -36 38 -40 62 -14 71 -58 90 -145
60 -36 -13 -115 -16 -455 -17 -226 -1 -442 0 -479 2 -52 2 -72 -1 -86 -14 -31
-28 -32 -98 -4 -236 29 -148 28 -288 -3 -380 -22 -63 -49 -78 -60 -33 -4 15
-18 53 -31 83 -14 30 -39 102 -56 160 -28 92 -31 118 -29 210 1 58 -2 111 -7
119 -15 23 -71 18 -93 -9 -16 -20 -18 -32 -12 -70 5 -25 9 -117 9 -205 0 -173
4 -189 56 -232 41 -35 53 -82 46 -184 -10 -138 -48 -207 -97 -177 -18 11 -60
93 -60 116 0 5 -7 15 -15 22 -22 18 -19 44 10 86 27 39 33 95 13 111 -7 6 -30
13 -51 16 l-37 6 2 -302 3 -302 22 2 c40 4 72 -15 92 -56 26 -49 56 -71 99
-71 36 0 70 29 107 91 20 33 22 34 93 37 70 3 73 2 100 -28 15 -17 48 -52 73
-78 25 -26 58 -64 73 -84 32 -45 48 -47 212 -22 125 18 165 13 195 -24 20 -25
21 -34 16 -140 -6 -108 -5 -115 16 -136 13 -12 30 -27 38 -32 9 -5 28 -28 43
-51 14 -24 33 -43 40 -43 49 0 63 90 21 130 -28 26 -31 63 -11 119 15 42 35
56 68 48 34 -9 41 -31 23 -67 -8 -16 -15 -43 -15 -60 0 -27 6 -34 43 -50 53
-25 79 -25 100 -2 23 25 21 68 -4 108 l-20 33 25 71 c31 90 46 102 111 94 28
-3 93 -5 146 -5 125 2 133 -6 123 -108 -10 -104 -3 -109 137 -109 109 1 110 1
134 30 14 16 25 35 25 42 0 7 8 20 18 29 25 23 151 23 192 2 35 -18 37 -26 25
-112 -6 -47 -4 -55 19 -78 19 -19 36 -25 66 -25 57 0 76 13 96 65 11 30 27 51
45 61 56 29 64 97 13 107 -30 5 -64 -22 -64 -52 0 -36 -51 -37 -70 -1 -7 13
-4 25 11 44 11 14 17 26 14 26 -4 0 -3 6 3 13 8 10 7 27 -4 63 -15 48 -15 85
2 232 4 37 1 65 -10 92 -25 64 -17 157 18 197 6 7 20 24 31 39 11 14 25 31 32
39 7 7 10 14 8 16 -2 2 18 4 43 4 43 0 48 -3 65 -35 15 -30 17 -50 12 -135 -3
-55 -1 -163 4 -241 8 -118 7 -148 -5 -184 -11 -31 -12 -50 -6 -65 12 -26 64
-52 129 -64 33 -6 55 -18 71 -37 23 -26 24 -33 17 -98 -12 -117 -10 -143 9
-165 42 -46 126 -34 145 21 15 41 14 81 -2 97 -8 8 -12 46 -12 114 0 56 -3
107 -8 114 -4 6 -9 60 -12 119 -5 103 6 207 27 247 6 11 5 17 -2 17 -6 0 -9 4
-5 9 7 12 -5 92 -14 87 -16 -10 -9 69 9 99 25 41 25 56 0 85 -11 13 -20 28
-20 35 0 21 57 66 86 68 l29 2 7 -100 c4 -55 6 -125 5 -155 -1 -30 -1 -89 0
-130 1 -41 4 -154 6 -250 2 -96 7 -188 12 -203 7 -24 2 -33 -35 -67 -23 -21
-40 -45 -38 -52 2 -7 24 -23 49 -34 36 -18 50 -33 74 -80 l30 -59 45 3 c25 1
70 3 100 5 64 2 78 9 91 45 17 44 4 70 -40 82 -48 13 -57 35 -36 85 17 43 20
91 5 100 -14 9 -12 63 2 67 15 5 18 125 3 136 -5 4 -11 15 -11 24 -1 10 -6 59
-10 110 -10 110 -11 277 -2 332 6 36 27 72 29 50 2 -29 9 -49 18 -52 6 -2 11
-9 11 -16 0 -7 6 -26 14 -42 8 -16 18 -51 21 -79 8 -57 8 -62 19 -130 4 -27
10 -57 13 -65 8 -21 10 -28 12 -44 0 -8 8 -22 17 -31 9 -9 14 -19 10 -22 -3
-3 1 -18 9 -32 14 -25 41 -138 37 -153 -1 -5 3 -8 9 -8 5 0 7 -4 4 -10 -3 -5
1 -21 10 -34 28 -43 16 -69 -38 -86 -78 -25 -90 -82 -21 -95 20 -3 47 -17 60
-30 23 -23 24 -30 24 -160 0 -75 -5 -145 -10 -155 -6 -11 -30 -28 -54 -39 -34
-15 -46 -27 -56 -55 -16 -51 2 -102 46 -128 18 -11 36 -28 39 -38 3 -10 15
-30 26 -44 37 -48 82 -27 94 43 10 58 24 66 81 46 60 -20 94 -8 117 40 9 19
35 46 58 60 40 26 41 27 35 73 -4 26 -9 108 -12 183 -7 172 -3 183 69 176 40
-3 56 -11 75 -32 22 -26 23 -33 20 -147 -3 -117 -2 -120 22 -140 18 -14 32
-18 55 -13 16 3 60 9 97 12 74 6 97 21 102 69 4 33 -18 64 -46 64 -66 0 -74
54 -12 85 21 11 41 20 42 21 2 2 3 70 3 153 -1 114 -6 161 -18 193 -12 30 -17
80 -19 168 -1 69 -5 148 -9 176 -6 41 -4 58 10 80 23 39 67 73 104 80 26 6 33
2 51 -27 17 -27 20 -44 16 -84 -3 -27 -2 -45 2 -38 4 6 7 -73 7 -175 0 -103 1
-223 3 -267 2 -44 1 -97 -2 -117 -3 -27 1 -45 16 -63 31 -40 21 -68 -34 -85
-46 -15 -70 -41 -60 -68 5 -16 72 -46 123 -56 63 -11 79 -36 79 -121 0 -65 3
-76 22 -89 33 -23 103 -21 128 4 27 27 27 89 0 123 -25 31 -25 57 -2 83 16 17
17 47 14 359 -2 187 -4 372 -5 412 -2 68 -1 73 28 97 39 35 98 52 132 40 44
-15 48 -62 27 -294 -3 -30 -7 -148 -9 -261 -4 -190 -2 -207 16 -235 22 -34 25
-67 5 -83 -8 -6 -40 -16 -72 -21 -32 -5 -61 -15 -66 -22 -10 -17 0 -49 21 -65
16 -13 105 -43 126 -43 7 0 24 -10 39 -21 26 -21 27 -24 20 -90 -10 -102 -2
-108 137 -107 121 1 127 4 149 71 14 45 35 58 80 48 24 -5 41 -17 57 -41 12
-19 36 -53 53 -75 18 -22 41 -55 51 -73 28 -48 57 -41 89 23 26 50 54 67 93
57 10 -3 29 -28 42 -57 26 -61 46 -71 105 -55 30 8 50 8 80 -1 51 -16 85 5
100 61 6 21 17 46 26 55 22 21 67 19 99 -7 27 -21 27 -22 21 -103 -6 -74 -5
-83 14 -100 24 -22 101 -25 125 -5 9 8 24 31 32 52 9 22 29 46 48 58 20 12 38
34 45 54 8 25 20 37 50 49 51 20 63 49 50 118 -6 29 -10 240 -10 471 l0 419
25 24 c18 19 35 25 68 25 87 0 81 29 87 -462 3 -238 1 -523 -3 -633 -4 -110
-8 -212 -9 -228 0 -15 6 -35 15 -45 14 -15 39 -17 236 -17 200 0 221 2 240 19
11 10 23 27 27 38 3 10 23 30 45 43 21 14 45 38 53 53 8 16 33 40 55 55 22 15
47 40 56 56 8 16 32 40 54 52 46 25 51 40 44 114 -7 64 3 79 59 102 43 17 54
41 45 105 -8 57 6 84 52 108 53 26 59 41 53 116 l-5 62 52 27 c65 32 79 60 63
121 -7 24 -12 71 -12 103 0 65 6 73 73 106 51 25 60 55 41 127 -16 61 -19 215
-4 253 6 17 25 32 55 45 59 25 71 51 58 127 -5 32 -11 217 -13 411 l-2 352
143 2 c221 4 293 6 307 7 17 1 15 66 -2 81 -11 8 -67 11 -188 11 -95 0 -188 2
-206 5 -30 6 -32 9 -28 37 3 18 13 37 22 44 17 12 17 14 -2 31 -10 10 -28 17
-39 17 -11 -1 -33 -2 -48 -3 -16 -1 -26 -6 -22 -11 9 -15 -13 -23 -25 -9 -46
55 -60 75 -60 85 0 6 -6 14 -12 16 -10 4 -10 8 1 15 8 6 9 11 3 13 -6 2 -12
10 -14 18 -2 7 -13 24 -26 37 -13 14 -54 89 -92 168 -38 80 -74 147 -79 150
-4 3 -19 34 -31 68 -24 65 -65 137 -162 286 -65 100 -106 145 -147 162 -69 28
-29 68 71 71 81 2 100 -4 121 -40 11 -19 32 -34 60 -43 32 -11 46 -23 59 -51
10 -20 31 -43 48 -52 18 -9 32 -26 36 -43 15 -67 27 -94 48 -102 27 -10 35 -5
52 37 20 47 10 71 -41 93 -28 12 -50 30 -60 49 -8 17 -32 40 -53 50 -26 13
-44 33 -56 58 -10 24 -31 46 -51 57 -18 10 -39 31 -45 46 -22 52 -43 64 -102
55 -70 -11 -112 -11 -179 -1 -50 7 -59 6 -77 -12z m131 -1133 c14 -6 29 -21
35 -33 5 -12 10 -102 11 -199 1 -176 1 -178 -23 -202 -14 -14 -42 -27 -66 -31
-45 -7 -70 -33 -70 -74 -1 -50 -60 -91 -122 -84 -38 4 -96 50 -119 95 -23 45
-25 125 -5 172 17 41 79 107 99 107 10 0 22 -19 32 -49 21 -63 60 -104 86 -91
22 12 42 74 37 115 -2 25 -12 35 -52 55 -61 31 -72 57 -56 135 16 75 42 95
126 95 35 0 74 -5 87 -11z m731 -191 c-3 -4 -1 -8 5 -8 7 0 7 -8 1 -24 -5 -13
-7 -26 -4 -28 2 -3 -10 -3 -26 0 -17 2 -30 7 -31 11 0 3 -2 15 -4 25 -5 29 3
36 35 34 16 -1 26 -6 24 -10z m-7460 -187 c10 -9 12 -21 5 -48 -4 -21 -9 -141
-10 -268 -2 -198 0 -236 15 -270 15 -34 16 -46 5 -78 -12 -36 -11 -42 20 -99
29 -52 33 -67 29 -113 -7 -83 -68 -146 -123 -125 -35 13 -78 102 -72 149 6 45
27 104 40 113 13 8 11 71 -3 108 -1 3 -2 8 -1 13 0 4 -3 7 -7 7 -13 0 -15 20
-16 260 -1 124 -5 248 -10 277 -12 77 2 97 65 91 26 -3 55 -10 63 -17z m2407
-28 c11 -28 14 -48 25 -154 7 -65 -7 -79 -54 -55 -39 20 -51 50 -55 143 -4 87
-2 91 46 92 21 1 30 -5 38 -26z m-2181 -4 c0 -5 -7 -9 -15 -9 -15 0 -20 12 -9
23 8 8 24 -1 24 -14z m17 -1 c-3 -8 -6 -5 -6 6 -1 11 2 17 5 13 3 -3 4 -12 1
-19z m1798 -160 c14 -21 14 -24 -2 -35 -23 -18 -58 -16 -78 3 -15 15 -15 18 1
35 23 26 59 24 79 -3z m-1462 -227 c37 -44 78 -230 71 -320 -3 -31 -6 -103 -7
-161 -2 -82 -7 -112 -22 -137 -21 -35 -55 -49 -85 -33 -26 14 -31 37 -30 150
1 286 -1 363 -7 374 -18 28 -25 126 -11 144 19 22 65 14 91 -17z m3122 4 c0
-16 -8 -21 -37 -23 -31 -3 -36 0 -33 15 2 10 4 21 4 24 1 3 16 6 34 5 25 -1
32 -5 32 -21z m-2461 -154 c19 -16 20 -30 2 -54 -13 -17 -16 -18 -39 -2 -27
17 -33 55 -9 55 7 0 11 4 8 9 -9 13 19 7 38 -8z m134 -343 c26 -8 39 -21 56
-57 12 -25 34 -64 49 -87 23 -34 26 -45 18 -67 -9 -24 -16 -27 -56 -27 -25 0
-62 -7 -83 -15 -77 -33 -120 -37 -165 -17 -23 10 -47 25 -53 33 -29 36 -84
153 -84 178 0 33 27 60 72 72 40 10 201 2 246 -13z m3771 -93 c33 -17 41 -39
41 -119 0 -54 -3 -61 -36 -92 -19 -19 -40 -34 -45 -34 -5 0 -17 -17 -28 -38
-31 -60 -39 -63 -160 -65 -60 -1 -112 -5 -116 -8 -3 -4 -8 -26 -10 -50 -1 -24
-3 -47 -4 -51 -1 -4 -21 -32 -46 -63 -25 -31 -43 -61 -39 -67 4 -6 3 -8 -4 -4
-6 3 -14 1 -18 -5 -10 -17 -34 46 -34 90 0 20 9 61 19 91 11 30 17 59 14 64
-4 5 -1 6 5 2 7 -4 12 -2 12 4 0 6 15 10 36 8 43 -3 49 6 64 91 16 96 28 119
76 147 24 14 53 41 64 60 12 18 29 38 38 44 26 15 139 12 171 -5z m-4839 -125
c0 -21 -8 -24 -34 -14 -20 8 -9 34 15 34 12 0 19 -7 19 -20z m5561 -82 c15
-29 14 -588 -2 -635 -16 -48 -35 -48 -48 0 -17 61 -11 604 7 635 16 28 28 28
43 0z m-4333 -4 c27 -19 28 -40 2 -47 -34 -9 -60 3 -60 28 0 20 10 31 30 34 3
1 16 -6 28 -15z m3592 -489 c17 -20 6 -136 -18 -185 -21 -43 -62 -64 -107 -56
-28 6 -36 14 -50 51 -25 64 -14 107 41 161 65 66 98 73 134 29z m-440 -122 c0
-24 -5 -43 -10 -43 -17 0 -32 53 -25 90 6 33 8 34 21 15 8 -10 14 -38 14 -62z
m14 -161 c-8 -23 -15 -27 -49 -27 -36 0 -40 3 -43 26 -2 20 6 34 34 59 l38 33
15 -32 c11 -23 12 -39 5 -59z m1163 12 c6 -21 12 -65 12 -96 1 -46 -3 -59 -17
-67 -32 -17 -62 13 -62 59 0 60 21 130 40 130 13 0 13 2 0 11 -13 9 -13 10 0
6 8 -2 20 -21 27 -43z m-2687 21 c19 -23 8 -50 -20 -50 -16 0 -26 6 -28 18 -4
18 14 47 28 47 4 0 13 -7 20 -15z"/>
<path d="M7984 7328 c-12 -19 -6 -76 13 -110 10 -20 17 -56 18 -88 0 -45 3
-55 19 -58 17 -4 18 1 14 46 -4 40 0 57 19 88 28 47 30 95 5 117 -21 19 -77
23 -88 5z"/>
<path d="M450 7210 c-12 -22 -2 -49 32 -87 24 -26 37 -121 28 -204 -3 -30 -1
-71 5 -93 9 -34 7 -40 -14 -57 -37 -30 -58 -20 -75 35 -6 18 -8 17 -26 -4 -11
-13 -20 -38 -20 -57 0 -29 -3 -33 -27 -33 -79 0 -123 -32 -108 -78 8 -26 83
-85 99 -79 8 3 19 36 27 76 8 47 17 71 26 71 7 0 35 -11 61 -24 63 -31 95 -38
125 -27 36 14 41 41 17 102 -19 47 -20 60 -11 114 6 33 13 97 17 141 l7 81
-33 24 c-17 13 -41 42 -52 64 -30 59 -58 72 -78 35z"/>
<path d="M8070 6977 c0 -62 16 -87 56 -87 46 0 64 17 64 60 0 45 -24 67 -84
77 l-36 6 0 -56z"/>
<path d="M356 7004 c-24 -23 -19 -68 10 -103 32 -38 56 -39 83 -5 27 34 27 78
1 104 -24 24 -72 26 -94 4z"/>
<path d="M3336 7001 c-12 -13 -16 -32 -14 -57 2 -32 7 -39 31 -45 38 -10 60
13 51 55 -8 39 -11 44 -33 56 -14 7 -23 5 -35 -9z"/>
<path d="M3473 6880 c-18 -11 -33 -25 -33 -32 0 -20 38 -78 55 -84 17 -7 20
-45 5 -60 -11 -11 -17 -320 -7 -330 3 -3 -1 -27 -9 -52 -7 -26 -14 -59 -14
-73 0 -49 62 -78 91 -42 22 26 26 428 5 493 -16 47 -15 51 4 87 23 42 26 83 8
101 -18 18 -69 14 -105 -8z"/>
<path d="M9279 6731 c-9 -3 -29 -21 -44 -39 -27 -33 -27 -34 -15 -93 10 -47
18 -63 36 -71 34 -16 85 2 103 34 14 25 13 31 -14 90 -35 76 -45 88 -66 79z"/>
<path d="M8430 6667 c-44 -15 -48 -34 -7 -34 17 0 33 -5 35 -11 2 -8 34 -12
92 -12 70 0 91 -3 98 -16 10 -18 81 -36 120 -30 54 9 288 11 314 2 23 -7 32
-3 57 25 17 18 30 42 29 55 -2 21 -6 22 -113 23 -60 0 -218 3 -350 6 -177 4
-249 2 -275 -8z"/>
<path d="M9930 6590 c-16 -16 -20 -33 -20 -90 0 -63 -2 -71 -25 -87 -72 -50
-70 -48 -68 -108 3 -76 -9 -101 -54 -120 -49 -21 -53 -28 -53 -105 0 -36 -4
-70 -8 -76 -4 -6 -26 -21 -48 -32 -49 -25 -54 -35 -54 -116 0 -66 -7 -78 -60
-104 -14 -7 -35 -30 -47 -52 -13 -21 -33 -42 -45 -45 -48 -15 -58 -34 -58
-107 0 -55 -4 -72 -20 -88 -11 -11 -27 -20 -35 -20 -8 0 -24 -9 -35 -20 -16
-16 -20 -33 -20 -87 0 -38 -4 -73 -8 -79 -4 -6 -26 -21 -48 -32 -47 -24 -56
-45 -47 -109 7 -49 -12 -87 -49 -98 -47 -15 -58 -34 -58 -101 0 -80 -5 -91
-50 -114 -21 -11 -41 -27 -45 -37 -33 -81 -21 -147 30 -169 19 -8 47 -33 64
-58 17 -25 39 -47 49 -49 9 -3 136 -5 281 -6 189 -1 269 -5 279 -14 8 -6 25
-28 37 -48 13 -20 37 -41 53 -48 17 -7 35 -25 41 -39 8 -23 7 -701 -2 -923 -2
-67 19 -99 64 -99 42 0 59 32 59 112 0 61 2 69 25 85 75 53 70 40 67 166 -2
103 0 116 18 140 12 15 28 27 35 27 8 0 24 10 35 23 21 21 21 29 18 300 l-3
279 24 19 c13 10 38 19 57 19 l34 0 0 585 0 585 -35 0 c-35 0 -74 27 -76 53
-1 6 -1 156 0 332 2 348 3 338 -56 369 -35 18 -36 19 -37 114 -1 51 -5 66 -20
78 -28 20 -63 17 -86 -6z m-139 -940 c6 0 17 -17 25 -37 14 -31 14 -53 5 -152
-7 -64 -10 -157 -9 -207 4 -122 -6 -134 -108 -134 -99 0 -104 7 -104 162 0
128 -4 118 65 172 28 22 30 30 35 102 5 71 7 80 30 91 14 7 31 11 38 8 8 -3
18 -5 23 -5z"/>
<path d="M9136 6481 c-4 -5 -6 -20 -5 -33 0 -12 1 -70 2 -128 l2 -105 33 -3
c78 -8 109 64 56 127 -22 26 -24 36 -19 74 5 34 3 48 -10 60 -18 18 -50 23
-59 8z"/>
<path d="M8655 6439 c-12 -19 5 -96 25 -114 15 -14 39 -18 102 -19 l83 -1 12
-40 c7 -22 18 -95 25 -162 6 -68 14 -124 17 -124 34 -8 51 -4 56 12 4 11 10
19 14 19 5 0 9 66 9 147 l1 146 -39 36 c-22 20 -40 43 -40 51 0 9 -7 26 -16
38 -14 21 -23 22 -129 22 -70 0 -116 -4 -120 -11z"/>
<path d="M2071 6356 c-7 -8 -11 -27 -9 -43 3 -28 3 -28 78 -29 41 0 88 -6 103
-12 39 -16 74 -15 81 3 3 8 0 32 -7 53 -12 35 -14 37 -52 35 -22 -1 -56 -5
-76 -8 -23 -4 -39 -3 -43 4 -10 16 -61 14 -75 -3z"/>
<path d="M9070 6152 c-33 -26 -55 -141 -55 -277 0 -86 1 -90 23 -93 38 -6 92
18 102 44 6 15 4 41 -5 76 -7 29 -16 99 -20 156 -4 56 -11 105 -15 107 -4 3
-18 -3 -30 -13z"/>
<path d="M3711 6123 c-23 -15 -23 -17 -6 -30 41 -30 94 -3 65 32 -16 19 -30
19 -59 -2z"/>
<path d="M5251 6031 c-23 -42 -10 -72 35 -83 41 -10 50 6 34 54 -17 49 -51 64
-69 29z"/>
<path d="M8813 5945 c-20 -9 -35 -23 -39 -39 -6 -26 -4 -42 15 -126 6 -25 13
-62 16 -82 5 -31 10 -38 29 -38 25 0 58 30 63 58 11 52 13 203 3 221 -12 24
-41 26 -87 6z"/>
<path d="M5927 5932 c-21 -23 -22 -66 -2 -82 16 -13 102 -7 117 8 12 12 -11
71 -32 82 -29 15 -65 12 -83 -8z"/>
<path d="M6070 5812 c0 -25 21 -50 45 -54 27 -4 34 41 9 59 -26 19 -54 16 -54
-5z"/>
<path d="M8956 5748 c-31 -26 -45 -77 -46 -159 0 -112 20 -143 79 -124 51 16
64 57 35 110 -11 20 -17 57 -18 109 -1 89 -10 99 -50 64z"/>
<path d="M8692 5630 c-32 -13 -44 -52 -32 -103 6 -23 17 -93 25 -155 8 -62 17
-117 20 -122 11 -18 36 -11 63 18 l27 27 0 170 0 170 -40 2 c-22 1 -50 -2 -63
-7z"/>
<path d="M8842 5388 c-5 -7 -12 -31 -15 -53 -17 -123 -19 -146 -13 -171 6 -24
10 -26 47 -21 22 3 46 11 54 17 21 17 19 64 -5 110 -11 22 -20 53 -20 69 0 55
-23 79 -48 49z"/>
<path d="M8583 5198 c-33 -16 -39 -64 -14 -118 12 -26 21 -66 21 -96 0 -67 19
-86 58 -57 26 20 27 23 29 130 1 60 3 114 4 119 5 27 -3 34 -38 33 -21 0 -48
-5 -60 -11z"/>
<path d="M8743 5075 c-18 -12 -40 -74 -35 -97 1 -5 -2 -8 -7 -8 -6 0 -5 -15 1
-37 6 -21 7 -65 4 -99 -8 -77 4 -114 38 -114 49 0 76 54 56 114 -7 22 -9 61
-5 103 7 71 -3 144 -20 150 -6 2 -20 -4 -32 -12z"/>
<path d="M8476 4874 l-28 -16 6 -96 c7 -88 19 -181 31 -239 6 -27 39 -30 69
-8 16 12 19 32 22 184 3 159 2 172 -16 181 -26 14 -50 12 -84 -6z"/>
<path d="M8641 4666 c-6 -7 -14 -35 -18 -62 -3 -26 -12 -59 -19 -72 -13 -25
-9 -120 5 -135 14 -14 81 4 96 26 20 29 19 56 -6 97 -16 26 -20 45 -16 78 8
72 -12 105 -42 68z"/>
<path d="M8395 4463 c-53 -13 -72 -77 -40 -133 8 -14 15 -43 16 -65 3 -87 32
-117 74 -78 18 16 20 32 20 148 l0 130 -25 2 c-14 0 -34 -1 -45 -4z"/>
<path d="M8539 4337 c-31 -23 -40 -59 -46 -190 -7 -156 -1 -177 52 -177 40 0
75 29 75 60 0 11 -7 36 -15 56 -8 19 -17 82 -21 140 -7 107 -17 131 -45 111z"/>
<path d="M8265 4138 c-11 -6 -23 -16 -27 -22 -13 -18 -9 -74 7 -113 19 -45 19
-78 -1 -136 -30 -88 8 -132 87 -101 33 14 46 15 83 4 51 -14 82 -7 91 20 9 27
-11 94 -34 114 -17 16 -25 16 -56 6 -58 -19 -65 -5 -54 109 10 110 3 131 -44
131 -18 0 -41 -6 -52 -12z"/>
</g>
</svg>
